<svg xmlns="http://www.w3.org/2000/svg" version="1.1" xmlns:xlink="http://www.w3.org/1999/xlink" xmlns:svgjs="http://svgjs.com/svgjs" width="1000" height="200" preserveAspectRatio="none" viewBox="0 0 1000 200"><g mask="url(&quot;#SvgjsMask1519&quot;)" fill="none"><rect width="1000" height="200" x="0" y="0" fill="rgba(0, 0, 0, 1)"></rect><path d="M197 66L196 172" stroke-width="10" stroke="url(#SvgjsLinearGradient1520)" stroke-linecap="round" class="Up"></path><path d="M390 191L389 97" stroke-width="6" stroke="url(#SvgjsLinearGradient1520)" stroke-linecap="round" class="Up"></path><path d="M188 61L187 -38" stroke-width="8" stroke="url(#SvgjsLinearGradient1520)" stroke-linecap="round" class="Up"></path><path d="M666 165L665 16" stroke-width="8" stroke="url(#SvgjsLinearGradient1520)" stroke-linecap="round" class="Up"></path><path d="M507 61L506 122" stroke-width="8" stroke="url(#SvgjsLinearGradient1521)" stroke-linecap="round" class="Down"></path><path d="M12 132L11 188" stroke-width="10" stroke="url(#SvgjsLinearGradient1520)" stroke-linecap="round" class="Up"></path><path d="M74 100L73 244" stroke-width="6" stroke="url(#SvgjsLinearGradient1521)" stroke-linecap="round" class="Down"></path><path d="M775 122L774 271" stroke-width="8" stroke="url(#SvgjsLinearGradient1521)" stroke-linecap="round" class="Down"></path><path d="M510 72L509 -27" stroke-width="8" stroke="url(#SvgjsLinearGradient1520)" stroke-linecap="round" class="Up"></path><path d="M172 174L171 233" stroke-width="8" stroke="url(#SvgjsLinearGradient1521)" stroke-linecap="round" class="Down"></path><path d="M613 176L612 72" stroke-width="10" stroke="url(#SvgjsLinearGradient1521)" stroke-linecap="round" class="Down"></path><path d="M78 40L77 135" stroke-width="6" stroke="url(#SvgjsLinearGradient1520)" stroke-linecap="round" class="Up"></path><path d="M963 146L962 272" stroke-width="10" stroke="url(#SvgjsLinearGradient1521)" stroke-linecap="round" class="Down"></path><path d="M825 72L824 157" stroke-width="6" stroke="url(#SvgjsLinearGradient1520)" stroke-linecap="round" class="Up"></path><path d="M875 79L874 159" stroke-width="10" stroke="url(#SvgjsLinearGradient1520)" stroke-linecap="round" class="Up"></path><path d="M964 101L963 6" stroke-width="6" stroke="url(#SvgjsLinearGradient1520)" stroke-linecap="round" class="Up"></path><path d="M287 197L286 71" stroke-width="8" stroke="url(#SvgjsLinearGradient1521)" stroke-linecap="round" class="Down"></path><path d="M668 55L667 -23" stroke-width="8" stroke="url(#SvgjsLinearGradient1520)" stroke-linecap="round" class="Up"></path><path d="M731 70L730 -37" stroke-width="10" stroke="url(#SvgjsLinearGradient1520)" stroke-linecap="round" class="Up"></path><path d="M115 7L114 79" stroke-width="6" stroke="url(#SvgjsLinearGradient1520)" stroke-linecap="round" class="Up"></path><path d="M862 93L861 155" stroke-width="8" stroke="url(#SvgjsLinearGradient1521)" stroke-linecap="round" class="Down"></path><path d="M743 28L742 171" stroke-width="6" stroke="url(#SvgjsLinearGradient1521)" stroke-linecap="round" class="Down"></path><path d="M111 108L110 181" stroke-width="6" stroke="url(#SvgjsLinearGradient1521)" stroke-linecap="round" class="Down"></path><path d="M584 40L583 -107" stroke-width="8" stroke="url(#SvgjsLinearGradient1521)" stroke-linecap="round" class="Down"></path><path d="M978 132L977 256" stroke-width="10" stroke="url(#SvgjsLinearGradient1520)" stroke-linecap="round" class="Up"></path></g><defs><mask id="SvgjsMask1519"><rect width="1000" height="200" fill="#ffffff"></rect></mask><linearGradient x1="0%" y1="100%" x2="0%" y2="0%" id="SvgjsLinearGradient1520"><stop stop-color="rgba(131, 130, 130, 0)" offset="0"></stop><stop stop-color="rgba(131, 130, 130, 1)" offset="1"></stop></linearGradient><linearGradient x1="0%" y1="0%" x2="0%" y2="100%" id="SvgjsLinearGradient1521"><stop stop-color="rgba(131, 130, 130, 0)" offset="0"></stop><stop stop-color="rgba(131, 130, 130, 1)" offset="1"></stop></linearGradient></defs></svg>