<svg width="21" height="17" viewBox="0 0 21 17" fill="none" xmlns="http://www.w3.org/2000/svg">
<path d="M11.5413 16.5565V16.4087C11.5413 16.5565 9.93426 12.4174 9.34989 11.8261C8.03506 10.4956 6.57414 10.6435 5.5515 10.6435H0.584368C0.292184 10.6435 0 10.7913 0 11.087V11.2348C0 11.2348 1.60701 15.3739 2.19138 15.8174C3.36012 17 4.38276 17 5.98977 17H11.103C11.3952 17 11.5413 16.8522 11.5413 16.5565Z" fill="#272524"/>
<path d="M20.0146 11.3826C20.0146 8.27826 16.8006 1.47826 16.3623 0.295652C16.3623 0.147826 16.2162 0 15.924 0C15.778 0 15.4858 0.147826 15.4858 0.295652C13.2944 5.46957 11.6874 9.31304 11.6874 9.31304C11.5413 9.75652 11.3952 10.2 11.5413 10.6435C11.6874 11.087 12.5639 12.8609 13.1483 14.3391C14.0249 16.4087 14.1709 17 16.0701 17C18.4076 17 20.0146 14.9304 20.0146 11.3826Z" fill="#272524"/>
</svg>
